<?xml version="1.0" encoding="iso-8859-1"?>
<!-- Generator: Adobe Illustrator 19.0.0, SVG Export Plug-In . SVG Version: 6.00 Build 0)  -->
<svg version="1.1" id="Layer_1" xmlns="http://www.w3.org/2000/svg" xmlns:xlink="http://www.w3.org/1999/xlink" x="0px" y="0px"
	 viewBox="0 0 512 512" style="enable-background:new 0 0 512 512;fill:#f9eced;" xml:space="preserve">
<g>
	<g>
		<path d="M499.677,426.489c4.427,0,8.017-3.589,8.017-8.017V84.977c0-2.1-0.863-4.184-2.348-5.668l-76.96-76.96
			C426.902,0.865,424.815,0,422.716,0H106.323C92.473,0,81.204,11.268,81.204,25.119v9.086H12.261
			c-6.987,0-10.616,8.738-5.668,13.685l62.741,62.741l-62.74,62.741c-4.947,4.947-1.32,13.685,5.668,13.685h68.944v299.825
			c0,13.851,11.268,25.119,25.119,25.119h376.251c13.851,0,25.119-11.268,25.119-25.119v-34.205c0-4.427-3.589-8.017-8.017-8.017
			s-8.017,3.589-8.017,8.017v34.205c0,5.01-4.076,9.086-9.086,9.086H106.324c-5.01,0-9.086-4.076-9.086-9.086V187.056h51.841
			c4.427,0,8.017-3.589,8.017-8.017s-3.589-8.017-8.017-8.017H31.615l54.724-54.724c3.131-3.131,3.131-8.207,0-11.337L31.615,50.238
			h348.88v120.785H183.285c-4.427,0-8.017,3.589-8.017,8.017s3.589,8.017,8.017,8.017h205.228c4.427,0,8.017-3.589,8.017-8.017
			V42.221c0-4.427-3.589-8.017-8.017-8.017H97.239v-9.086c0-5.01,4.076-9.086,9.086-9.086H414.7v51.841
			c0,13.851,11.268,25.119,25.119,25.119h51.841v325.478C491.66,422.9,495.25,426.489,499.677,426.489z M439.818,76.96
			c-5.01,0-9.086-4.076-9.086-9.086V27.37l49.59,49.59H439.818z"/>
	</g>
</g>
<g>
	<g>
		<path d="M166.182,76.96c-4.427,0-8.017,3.589-8.017,8.017v17.637h-18.171V84.977c0-4.427-3.589-8.017-8.017-8.017
			s-8.017,3.589-8.017,8.017v51.307c0,4.427,3.589,8.017,8.017,8.017s8.017-3.589,8.017-8.017v-17.637h18.171v17.637
			c0,4.427,3.589,8.017,8.017,8.017s8.017-3.589,8.017-8.017V84.977C174.199,80.55,170.61,76.96,166.182,76.96z"/>
	</g>
</g>
<g>
	<g>
		<path d="M217.489,76.96h-34.205c-4.427,0-8.017,3.589-8.017,8.017s3.589,8.017,8.017,8.017h9.086v43.29
			c0,4.427,3.589,8.017,8.017,8.017s8.017-3.589,8.017-8.017v-43.29h9.086c4.427,0,8.017-3.589,8.017-8.017
			S221.917,76.96,217.489,76.96z"/>
	</g>
</g>
<g>
	<g>
		<path d="M288.038,77.251c-3.471-0.961-7.159,0.511-9.014,3.601l-18.779,31.299l-18.779-31.299
			c-1.853-3.09-5.542-4.562-9.014-3.601c-3.473,0.962-5.877,4.123-5.877,7.726v51.307c0,4.427,3.589,8.017,8.017,8.017
			c4.427,0,8.017-3.589,8.017-8.017v-22.365l10.763,17.938c3.058,5.095,10.69,5.096,13.748,0l10.763-17.938v22.365
			c0,4.427,3.589,8.017,8.017,8.017c4.427,0,8.017-3.589,8.017-8.017V84.977C293.915,81.374,291.511,78.213,288.038,77.251z"/>
	</g>
</g>
<g>
	<g>
		<path d="M337.205,128.267h-17.637v-43.29c0-4.427-3.589-8.017-8.017-8.017c-4.427,0-8.017,3.589-8.017,8.017v51.307
			c0,4.427,3.589,8.017,8.017,8.017h25.654c4.427,0,8.017-3.589,8.017-8.017S341.633,128.267,337.205,128.267z"/>
	</g>
</g>
<g>
	<g>
		<path d="M414.166,213.779H174.734c-9.136,0-16.568,7.432-16.568,16.568v222.33c0,9.136,7.432,16.568,16.568,16.568h239.432
			c9.136,0,16.568-7.432,16.568-16.568v-222.33C430.734,221.211,423.302,213.779,414.166,213.779z M414.7,265.086H243.143
			c-4.427,0-8.017,3.589-8.017,8.017s3.589,8.017,8.017,8.017H414.7v171.557c0,0.295-0.239,0.534-0.534,0.534H174.734
			c-0.295,0-0.534-0.239-0.534-0.534V281.119h34.739c4.427,0,8.017-3.589,8.017-8.017s-3.589-8.017-8.017-8.017h-34.739v-34.739
			c0-0.295,0.239-0.534,0.534-0.534h239.432c0.295,0,0.534,0.239,0.534,0.534V265.086z"/>
	</g>
</g>
<g>
	<g>
		<path d="M397.063,239.432h-8.551c-4.427,0-8.017,3.589-8.017,8.017s3.589,8.017,8.017,8.017h8.551
			c4.427,0,8.017-3.589,8.017-8.017S401.491,239.432,397.063,239.432z"/>
	</g>
</g>
<g>
	<g>
		<path d="M362.859,239.432h-8.551c-4.427,0-8.017,3.589-8.017,8.017s3.589,8.017,8.017,8.017h8.551
			c4.427,0,8.017-3.589,8.017-8.017S367.286,239.432,362.859,239.432z"/>
	</g>
</g>
<g>
	<g>
		<path d="M328.654,239.432h-8.551c-4.427,0-8.017,3.589-8.017,8.017s3.589,8.017,8.017,8.017h8.551
			c4.427,0,8.017-3.589,8.017-8.017S333.082,239.432,328.654,239.432z"/>
	</g>
</g>
<g>
	<g>
		<path d="M211.724,367.165l28.536-28.536c3.089-3.088,3.089-8.249,0-11.337c-3.088-3.088-8.249-3.088-11.337,0l-34.205,34.205
			c-3.132,3.13-3.132,8.207,0,11.337l34.205,34.205c3.261,3.261,8.765,3.041,11.763-0.46c2.687-3.137,2.493-7.959-0.427-10.877
			L211.724,367.165z"/>
	</g>
</g>
<g>
	<g>
		<path d="M394.181,361.497l-34.205-34.205c-3.131-3.131-8.207-3.131-11.337,0c-3.131,3.131-3.131,8.207,0,11.337l28.536,28.536
			l-28.536,28.536c-3.132,3.13-3.132,8.207,0,11.337c3.088,3.088,8.249,3.088,11.337,0l34.205-34.205
			C397.311,369.703,397.311,364.626,394.181,361.497z"/>
	</g>
</g>
<g>
	<g>
		<path d="M324.228,317.535c-3.799-2.279-8.721-1.046-10.999,2.749l-51.307,85.512c-2.279,3.797-1.048,8.721,2.749,10.999
			c3.747,2.249,8.752,0.995,10.999-2.749l51.307-85.511C329.255,324.737,328.024,319.813,324.228,317.535z"/>
	</g>
</g>
<g>
</g>
<g>
</g>
<g>
</g>
<g>
</g>
<g>
</g>
<g>
</g>
<g>
</g>
<g>
</g>
<g>
</g>
<g>
</g>
<g>
</g>
<g>
</g>
<g>
</g>
<g>
</g>
<g>
</g>
</svg>
