<?xml version="1.0" encoding="UTF-8"?>
<svg xmlns="http://www.w3.org/2000/svg" xmlns:xlink="http://www.w3.org/1999/xlink" width="148pt" height="173.5pt" viewBox="0 0 148 173.5" version="1.1">
<g id="surface1">
<path style=" stroke:none;fill-rule:evenodd;fill:rgb(0%,0%,0%);fill-opacity:1;" d="M 77.074219 16.726563 C 71.300781 16.726563 62.734375 17.023438 57.175781 17.898438 C 45.96875 19.65625 53.941406 19.597656 40.988281 15.285156 C 37.203125 14.027344 32.566406 12.777344 28.027344 12.777344 C 24.234375 12.777344 22.679688 14.691406 21.214844 17.160156 C 19.875 19.417969 18.628906 22.175781 18.011719 25.144531 C 17.007813 29.976563 17.117188 35.003906 18.519531 39.734375 C 20.160156 45.269531 20.085938 43.019531 17.960938 48.136719 C 17.273438 49.792969 16.921875 50.632813 16.300781 52.40625 L 14.890625 56.917969 C 14.515625 58.222656 14.058594 60.855469 13.914063 62.199219 C 13.269531 68.339844 16.023438 69.039063 9.652344 69.785156 C 7.527344 70.035156 4.265625 70.332031 2.273438 71.296875 C 1.230469 71.804688 0.0664063 74.335938 2.019531 74.335938 C 13.816406 74.335938 13.46875 70.632813 15.105469 77.707031 C 16.925781 85.566406 16.355469 82.210938 10.574219 84.863281 C 8.492188 85.816406 6.230469 88.488281 10.25 88.488281 C 12.4375 88.488281 14.542969 87.171875 17.492188 87.171875 C 18.539063 87.171875 22.429688 93.066406 22.429688 94.085938 C 22.429688 95.191406 15.300781 99.222656 13.769531 100.90625 C 12.554688 102.242188 12.671875 103.960938 14.53125 103.960938 C 16.378906 103.960938 20.929688 100.296875 22.863281 99.125 C 23.628906 98.660156 23.722656 98.5 24.539063 98.140625 C 26.835938 97.125 29.347656 99.894531 31.128906 101.1875 L 37.679688 105.171875 C 39.070313 105.867188 40.207031 106.289063 41.523438 106.921875 C 41.25 107.679688 41.503906 107.191406 40.980469 107.699219 C 40.65625 108.015625 40.542969 108.03125 40.222656 108.253906 C 32.636719 113.558594 26.050781 125.808594 26.050781 135.230469 C 21.871094 135.578125 16.175781 139.367188 16.175781 143.789063 C 16.175781 147.503906 16.828125 150.457031 20.136719 152.339844 C 25.640625 155.476563 32.578125 155.671875 39.234375 155.625 C 42.074219 155.605469 41.566406 156.035156 43.386719 157.066406 C 48.4375 159.925781 54.167969 161.257813 59.808594 162.703125 C 60.859375 162.972656 60.816406 163.035156 61.925781 163.21875 C 65.289063 163.773438 64.546875 164.019531 67.109375 166.589844 C 68.117188 167.601563 69.015625 168.238281 70.289063 169.007813 C 77.722656 173.496094 88.402344 171.335938 94.714844 166.367188 C 95.375 165.847656 95.929688 165.355469 96.492188 164.855469 C 97.402344 164.046875 97.105469 163.90625 98.140625 163.210938 C 102.574219 164.394531 100.285156 167.164063 112.296875 167.164063 C 121.996094 167.164063 128.753906 156.6875 128.753906 147.082031 C 128.753906 137.863281 124.289063 132.550781 124.144531 131.28125 C 124 129.996094 129.640625 125.246094 126.351563 117.882813 C 125.933594 116.945313 125.238281 116 124.957031 115 C 123.417969 109.457031 122.859375 107.582031 116.246094 107.582031 C 114.527344 107.582031 114.339844 108.238281 112.953125 108.238281 C 111.558594 108.238281 110.617188 107.386719 109.003906 107.25 C 109.589844 106.453125 114.089844 104.738281 116.640625 103.039063 C 120.121094 100.71875 123.390625 97.910156 126.164063 94.785156 C 126.601563 94.292969 126.933594 93.726563 127.859375 93.585938 C 130.277344 93.21875 135.742188 97.375 138.960938 97.375 C 140.175781 97.375 142.0625 95.441406 136.4375 92.65625 C 134.160156 91.53125 131.816406 90.535156 129.742188 89.148438 C 130.351563 87.882813 130.988281 86.140625 131.511719 84.660156 C 133.324219 79.550781 133.167969 80.695313 139.84375 81.316406 C 140.285156 81.359375 144.226563 82.109375 144.226563 80.257813 C 144.226563 77.617188 135.933594 77.710938 133.691406 76.636719 C 133.691406 73.542969 134.351563 71.109375 134.351563 67.75 C 139.855469 66.46875 144.117188 68.050781 146.722656 66.953125 C 147.691406 66.546875 148.019531 66.085938 147.296875 65.058594 C 145.132813 61.984375 137.289063 64.371094 134.738281 63.414063 C 133.671875 63.011719 133.296875 56.496094 132.242188 53.730469 C 130.839844 50.039063 130.753906 50.855469 132.488281 47.457031 C 133.121094 46.222656 133.597656 45.398438 134.066406 44.097656 C 135.433594 40.316406 136.75 33.390625 134.082031 29.835938 C 132.453125 27.667969 131.429688 27.726563 129.085938 26.601563 C 129.085938 20.664063 126.589844 7.839844 118.878906 7.839844 C 113.457031 7.839844 108.8125 9.925781 104.503906 12.226563 C 102.957031 13.050781 101.960938 13.949219 100.445313 14.753906 C 98.785156 12.273438 96.5 9.917969 93.640625 8.71875 C 89.480469 6.972656 84.9375 8.570313 82.003906 10.792969 C 79.984375 12.324219 78.453125 14.667969 77.074219 16.726563 Z M 77.074219 16.726563 "/>
<path style=" stroke:none;fill-rule:evenodd;fill:rgb(99.609375%,99.609375%,99.609375%);fill-opacity:1;" d="M 23.320313 39.15625 C 24.964844 38.808594 25.078125 37.839844 26.710938 38.769531 C 28.179688 40.214844 25.195313 43.679688 24.132813 45.421875 C 20.75 50.957031 15.574219 68.003906 19.015625 69.507813 C 20.042969 69.957031 21.261719 69.894531 22.425781 70.03125 C 24.082031 70.226563 25.394531 70.515625 26.332031 71.332031 C 26.3125 75.128906 21.148438 71.976563 19.191406 73.730469 C 17.960938 75.546875 20.074219 80.652344 21.113281 81.90625 C 23.1875 82.570313 25.160156 80.847656 27.007813 82.234375 C 28.125 84.539063 24.6875 84.238281 22.917969 85.664063 C 22.875 87.34375 25.605469 90.875 26.335938 91.5 C 28.742188 93.566406 30.875 89.96875 34.007813 91.066406 C 35.082031 94.140625 32.117188 93.386719 30.941406 95.402344 C 31.90625 96.765625 37.703125 100.214844 39.894531 101.316406 C 56.03125 109.402344 87.128906 109.050781 104.15625 103.71875 C 109.953125 101.90625 121.527344 95.929688 122.175781 91.738281 C 120.527344 90.832031 119.324219 90.964844 119.492188 88.367188 C 122.285156 87.21875 122.078125 88.644531 124.804688 88.140625 C 125.914063 86.871094 128.371094 82.511719 127.964844 80.402344 C 126.308594 79.460938 125.417969 80.027344 124.34375 78.613281 C 124.640625 76.074219 126.816406 76.917969 129.222656 76.695313 C 129.683594 74.917969 130.351563 70.351563 129.742188 68.441406 C 127.21875 67.339844 124.191406 70.179688 121.832031 68.164063 L 121.824219 66.710938 C 123.992188 65.019531 127.640625 65.417969 129.644531 64.105469 C 129.96875 61.777344 128.5625 56.035156 127.4375 54.253906 C 125.855469 54.972656 124.675781 56.328125 122.324219 57 C 115.667969 58.90625 110.070313 53.921875 107.710938 48.035156 C 104.222656 48.457031 102.851563 48.867188 99.625 47.515625 C 97.296875 46.539063 95.515625 44.960938 94.582031 43.378906 C 87.75 45.746094 81.367188 48.113281 75.460938 42.371094 C 69.515625 36.585938 73.550781 26.898438 74.335938 22.125 C 68.511719 22.261719 60.078125 22.46875 54.667969 23.625 C 46.144531 25.449219 50.429688 23.707031 38.859375 19.710938 C 36.527344 18.90625 32.945313 17.855469 30.332031 17.738281 C 26.390625 17.5625 25.273438 19.039063 23.917969 21.828125 C 21.304688 27.203125 20.894531 33.6875 23.320313 39.15625 Z M 23.320313 39.15625 "/>
<path style=" stroke:none;fill-rule:evenodd;fill:rgb(99.609375%,99.609375%,99.609375%);fill-opacity:1;" d="M 82.890625 127.398438 C 72.503906 129.695313 66.855469 137.675781 65.335938 147.925781 C 63.582031 159.75 71.902344 169.21875 84.042969 166.566406 C 89.425781 165.390625 92.363281 163.066406 95.472656 159.222656 C 97.871094 156.257813 100.59375 150.8125 101.230469 145.945313 C 102.714844 134.566406 94.183594 124.90625 82.890625 127.398438 Z M 82.890625 127.398438 "/>
<path style=" stroke:none;fill-rule:evenodd;fill:rgb(15.696716%,46.263123%,73.631287%);fill-opacity:1;" d="M 65.457031 111.835938 C 64.320313 111.429688 60.410156 111.050781 59.105469 111.308594 C 59.632813 113.828125 62.132813 116.253906 60.671875 123.433594 C 59.863281 127.390625 58.226563 130.859375 56.667969 134.230469 C 54.898438 138.058594 56.132813 136.105469 56.234375 139.847656 C 56.492188 149.390625 46.695313 148 46.203125 148.105469 C 45.355469 148.285156 44.867188 149.035156 43.410156 149.40625 C 43.382813 150.066406 43.546875 150.832031 43.785156 151.386719 C 45.378906 154.59375 59.273438 158.460938 61.949219 158.535156 C 61.589844 153.597656 59.476563 151.445313 62.171875 142.660156 C 63.269531 139.070313 64.578125 136.5625 66.539063 133.589844 C 66.84375 133.128906 67.171875 132.550781 67.4375 132.179688 C 67.878906 131.570313 68 131.554688 68.503906 130.949219 C 69.304688 129.984375 69.472656 129.492188 70.535156 128.691406 L 73.167969 126.714844 C 77.40625 124.015625 82.253906 122.492188 87.597656 122.882813 C 90.929688 123.128906 92.386719 124.152344 94.964844 124.683594 C 96.441406 122.910156 98.867188 122.019531 101.453125 121.144531 C 100.996094 118.152344 97.503906 112.714844 96.226563 110.175781 C 95.203125 110.125 94.355469 110.230469 93.339844 110.371094 C 91.460938 110.625 91.605469 110.300781 91.183594 111.5 C 90.484375 113.476563 90.78125 114.007813 89.550781 116.105469 C 85.679688 122.699219 72.90625 123.460938 66.917969 113.796875 C 66.289063 112.785156 66.261719 112.488281 65.457031 111.835938 Z M 65.457031 111.835938 "/>
<path style=" stroke:none;fill-rule:evenodd;fill:rgb(99.609375%,99.609375%,99.609375%);fill-opacity:1;" d="M 98.660156 127.003906 C 99.949219 128.859375 101.484375 129.628906 103.355469 133.308594 C 109.503906 145.402344 101.472656 156.726563 100.925781 159.261719 C 107.289063 166.460938 126.980469 163.269531 124.183594 143.753906 C 121.851563 127.476563 105.625 121.359375 98.660156 127.003906 Z M 98.660156 127.003906 "/>
<path style=" stroke:none;fill-rule:evenodd;fill:rgb(94.53125%,3.137207%,18.041992%);fill-opacity:1;" d="M 92.546875 40.769531 L 92.152344 37.875 C 89.53125 36.550781 88.507813 36.6875 87.066406 34.378906 C 85.808594 32.367188 85.644531 29.496094 86.6875 27.316406 C 87.464844 25.695313 89.363281 23.976563 91.40625 23.5 C 94.648438 22.75 96.257813 24.222656 98.140625 25.433594 L 101.082031 24.054688 C 100.855469 19.472656 90.015625 -0.09375 78.808594 20.449219 C 76.609375 24.476563 74.03125 33.472656 76.429688 38.421875 C 79.125 43.988281 86.988281 43.324219 92.546875 40.769531 Z M 92.546875 40.769531 "/>
<path style=" stroke:none;fill-rule:evenodd;fill:rgb(99.609375%,99.609375%,99.609375%);fill-opacity:1;" d="M 52.054688 133.5625 C 50.519531 133.054688 49.15625 132.140625 47.613281 131.449219 C 44.03125 129.832031 36.023438 125.632813 33.292969 124.976563 C 31.058594 127.714844 26.855469 142.386719 37.300781 145.714844 C 39.613281 146.453125 41.605469 145.882813 43.160156 144.773438 C 46.835938 142.15625 45.300781 144.21875 49.070313 143.753906 C 51.273438 143.480469 52.210938 141.605469 51.953125 139.242188 C 51.828125 138.097656 51.269531 137.410156 51.230469 136.503906 C 51.183594 135.414063 51.859375 134.851563 52.054688 133.5625 Z M 52.054688 133.5625 "/>
<path style=" stroke:none;fill-rule:evenodd;fill:rgb(94.53125%,3.137207%,18.041992%);fill-opacity:1;" d="M 115.941406 31.238281 C 115.308594 35.277344 117.960938 34.195313 120.230469 35.785156 C 124.628906 38.859375 123.054688 45.480469 118.335938 46.835938 C 114.117188 48.046875 114.003906 44.597656 111.050781 46.664063 C 110.480469 50.9375 121.441406 62.019531 130.101563 45.078125 C 131.75 41.847656 133.964844 33.992188 130.816406 31.117188 C 127.96875 28.515625 119.242188 29.765625 115.941406 31.238281 Z M 115.941406 31.238281 "/>
<path style=" stroke:none;fill-rule:evenodd;fill:rgb(94.53125%,3.137207%,18.041992%);fill-opacity:1;" d="M 35.277344 120.75 L 54.039063 129.570313 C 61.6875 116.691406 53.199219 103.4375 41.394531 112.714844 C 39.726563 114.027344 36.304688 118.28125 35.277344 120.75 Z M 35.277344 120.75 "/>
<path style=" stroke:none;fill-rule:evenodd;fill:rgb(94.53125%,3.137207%,18.041992%);fill-opacity:1;" d="M 101.601563 27.933594 C 90.542969 31.726563 95.589844 48.039063 106.855469 44.859375 C 117.917969 41.734375 112.941406 24.042969 101.601563 27.933594 Z M 101.601563 27.933594 "/>
<path style=" stroke:none;fill-rule:evenodd;fill:rgb(99.609375%,99.609375%,99.609375%);fill-opacity:1;" d="M 102.972656 19.03125 L 104.613281 24.082031 C 107.1875 24.402344 110.253906 25.339844 111.980469 26.921875 C 112.847656 27.71875 112.890625 28.007813 113.941406 28.699219 C 118.71875 26.117188 121.394531 27.027344 124.480469 26.273438 C 124.621094 24.546875 123.304688 19.917969 122.765625 18.105469 C 121.898438 15.191406 121.152344 13.015625 117.5625 13.015625 C 114.109375 13.015625 104.710938 17.503906 102.972656 19.03125 Z M 102.972656 19.03125 "/>
<path style=" stroke:none;fill-rule:evenodd;fill:rgb(99.609375%,99.609375%,99.609375%);fill-opacity:1;" d="M 110.246094 112.414063 L 106.960938 120.40625 C 107.066406 120.46875 107.1875 120.4375 107.230469 120.539063 L 107.960938 120.835938 C 108.015625 120.851563 108.910156 121.050781 109.035156 121.078125 C 109.84375 121.253906 110.382813 121.390625 111.082031 121.621094 C 113.441406 122.402344 116.097656 123.820313 118.003906 125.246094 C 118.5625 125.660156 120.632813 127.394531 121.140625 127.550781 C 125.386719 122.019531 121.171875 118.285156 120.734375 115.851563 C 119.59375 109.53125 116.375 112.367188 113.875 112.890625 C 112.378906 113.207031 111.746094 112.566406 110.246094 112.414063 Z M 110.246094 112.414063 "/>
<path style=" stroke:none;fill-rule:evenodd;fill:rgb(0%,0%,0%);fill-opacity:1;" d="M 72.550781 80.835938 C 69.613281 81.679688 66.992188 84.5 69.023438 87.988281 C 70.207031 90.019531 74.546875 91.128906 77.835938 90.199219 C 85.078125 88.152344 81.714844 78.207031 72.550781 80.835938 Z M 72.550781 80.835938 "/>
<path style=" stroke:none;fill-rule:evenodd;fill:rgb(94.53125%,3.137207%,18.041992%);fill-opacity:1;" d="M 69.613281 111.9375 C 69.777344 114.324219 77.375 121.210938 85.425781 116.257813 C 86.640625 115.507813 88.105469 113.359375 88.214844 111.214844 Z M 69.613281 111.9375 "/>
<path style=" stroke:none;fill-rule:evenodd;fill:rgb(99.609375%,99.609375%,99.609375%);fill-opacity:1;" d="M 36.417969 151.210938 C 35.363281 148.347656 34.597656 150.710938 30.328125 146.429688 C 29.21875 145.316406 28.902344 144.976563 28.007813 143.476563 C 27.328125 142.328125 27.125 140.964844 26.378906 139.820313 C 20.816406 140.328125 18.34375 145.699219 22.316406 148.519531 C 25.167969 150.542969 32.328125 151.046875 36.417969 151.210938 Z M 36.417969 151.210938 "/>
<path style=" stroke:none;fill-rule:evenodd;fill:rgb(0%,0%,0%);fill-opacity:1;" d="M 43.007813 71.082031 C 40.539063 72.121094 39.585938 74.371094 40.011719 77.832031 C 40.363281 80.730469 42.167969 82.914063 45.515625 81.933594 C 50.285156 80.539063 48.976563 68.574219 43.007813 71.082031 Z M 43.007813 71.082031 "/>
<path style=" stroke:none;fill-rule:evenodd;fill:rgb(0%,0%,0%);fill-opacity:1;" d="M 102.074219 69.9375 C 97.121094 72.292969 99.597656 82.855469 104.980469 80.519531 C 109.734375 78.457031 108.113281 67.066406 102.074219 69.9375 Z M 102.074219 69.9375 "/>
<path style=" stroke:none;fill-rule:evenodd;fill:rgb(98.046875%,81.639099%,0%);fill-opacity:1;" d="M 73.875 83.164063 C 68.503906 84.488281 71.707031 89.164063 76.523438 87.886719 C 81.289063 86.625 78.316406 82.070313 73.875 83.164063 Z M 73.875 83.164063 "/>
<path style=" stroke:none;fill-rule:evenodd;fill:rgb(94.53125%,3.137207%,18.041992%);fill-opacity:1;" d="M 104.066406 116.691406 C 104.898438 116.046875 106.445313 112.136719 106.664063 110.832031 C 105.621094 110.433594 99.582031 107.652344 100.417969 110.1875 C 100.644531 110.878906 103.605469 116.285156 104.066406 116.691406 Z M 104.066406 116.691406 "/>
<path style=" stroke:none;fill-rule:evenodd;fill:rgb(94.53125%,3.137207%,18.041992%);fill-opacity:1;" d="M 91.886719 33.828125 C 92.707031 32.972656 92.800781 31.898438 93.359375 30.710938 C 94.109375 29.117188 95.085938 28.972656 94.773438 27.351563 C 89.277344 24.859375 87.503906 32.921875 91.886719 33.828125 Z M 91.886719 33.828125 "/>
<path style=" stroke:none;fill-rule:evenodd;fill:rgb(94.53125%,3.137207%,18.041992%);fill-opacity:1;" d="M 116.699219 38.25 C 115.890625 39.460938 113.46875 45.089844 117.582031 43.441406 C 120.359375 42.324219 119.78125 38.132813 116.699219 38.25 Z M 116.699219 38.25 "/>
</g>
</svg>
